<svg xmlns="http://www.w3.org/2000/svg" width="320" height="240" viewBox="0 0 320 240">
  <rect width="320" height="240" fill="#f4f6f8"/>
  <rect x="0" y="0" width="320" height="30" fill="#1f4e79"/>
  <text x="18" y="20" fill="#ffffff" font-family="Arial, sans-serif" font-size="14" font-weight="700">Quarterly Revenue</text>
  <g stroke="#d6dbe1" stroke-width="1">
    <line x1="56" y1="60" x2="56" y2="196"/>
    <line x1="56" y1="196" x2="282" y2="196"/>
    <line x1="56" y1="160" x2="282" y2="160"/>
    <line x1="56" y1="124" x2="282" y2="124"/>
    <line x1="56" y1="88" x2="282" y2="88"/>
  </g>
  <g fill="#5b9bd5">
    <rect x="78" y="124" width="30" height="72" rx="2"/>
    <rect x="126" y="102" width="30" height="94" rx="2"/>
    <rect x="174" y="84" width="30" height="112" rx="2"/>
    <rect x="222" y="64" width="30" height="132" rx="2"/>
  </g>
  <g fill="#495057" font-family="Arial, sans-serif" font-size="12">
    <text x="82" y="214">Q1</text>
    <text x="130" y="214">Q2</text>
    <text x="178" y="214">Q3</text>
    <text x="226" y="214">Q4</text>
    <text x="20" y="164">$1M</text>
    <text x="20" y="128">$2M</text>
    <text x="20" y="92">$3M</text>
  </g>
</svg>
