<svg xmlns="http://www.w3.org/2000/svg" width="320" height="240" viewBox="0 0 320 240">
  <rect width="320" height="240" fill="#f3f1fa"/>
  <rect x="0" y="0" width="320" height="30" fill="#5b2c83"/>
  <text x="18" y="20" fill="#ffffff" font-family="Arial, sans-serif" font-size="14" font-weight="700">Dept. Targets</text>
  <g stroke="#dad5e8" stroke-width="1">
    <line x1="54" y1="62" x2="54" y2="196"/>
    <line x1="54" y1="196" x2="286" y2="196"/>
    <line x1="54" y1="162" x2="286" y2="162"/>
    <line x1="54" y1="128" x2="286" y2="128"/>
    <line x1="54" y1="94" x2="286" y2="94"/>
  </g>
  <g>
    <rect x="76" y="112" width="24" height="84" rx="2" fill="#8064a2"/>
    <rect x="108" y="86" width="24" height="110" rx="2" fill="#4f81bd"/>
    <rect x="140" y="134" width="24" height="62" rx="2" fill="#c0504d"/>
    <rect x="172" y="98" width="24" height="98" rx="2" fill="#9bbb59"/>
    <rect x="204" y="76" width="24" height="120" rx="2" fill="#f79646"/>
    <rect x="236" y="122" width="24" height="74" rx="2" fill="#4bacc6"/>
  </g>
  <g fill="#4b4453" font-family="Arial, sans-serif" font-size="11">
    <text x="74" y="214">Ops</text>
    <text x="106" y="214">Fin</text>
    <text x="139" y="214">HR</text>
    <text x="169" y="214">IT</text>
    <text x="200" y="214">Mkt</text>
    <text x="233" y="214">QA</text>
  </g>
</svg>
